<?xml version="1.0" encoding="utf-8"?>
<!-- Generator: Adobe Illustrator 22.0.1, SVG Export Plug-In . SVG Version: 6.00 Build 0)  -->
<svg version="1.1" id="Layer_1" xmlns="http://www.w3.org/2000/svg" xmlns:xlink="http://www.w3.org/1999/xlink" x="0px" y="0px"
	 viewBox="0 0 792 612" style="enable-background:new 0 0 792 612;" xml:space="preserve">
<style type="text/css">
	.st0{fill:none;stroke:#000000;stroke-width:0.75;stroke-miterlimit:10;}
</style>
<g>
	<path class="st0" d="M393.2,445.2c-1.1,1.3-2.2,2.5-3.2,3.8c-7.7,10.5-19.7,16.1-30.9,13.4c-9.9-2.4-21.2-3.4-30.3-12.1
		c-8-7.7-15-16.8-24.8-22.9c-4.3-2.7-8.2-7.6-9.8-12.4c-3.6-10.5-9.3-20-13.6-30.1c-4.8-11.4-8.5-23.1-10-34.9
		c-2.2-17-6.8-33.9-0.9-51.8c3.6-10.9,7.2-21.9,10.6-32.9c1.4-4.6,2.6-9.7,9.5-10.3c4.7-0.4,3.6-6.1,4.5-9.2
		c3.4-11.1,14-16.1,20-24.8c7.1-10.2,17.9-15.5,27.8-22c2.6-1.7,3.5-5.6,6.7-7.2c0.9-0.5,1.7-2.5,2.2-2.4c10.8,2.4,10.6-9,16.3-12.8
		c15.9-10.5,23-27.1,30.9-43.3c1.3-2.7,3.2-6.7,6.3-6.1c3.6,0.7,1.8,5.2,2.6,8c3.1,10.5,7.2,20.2,13.4,29.7
		c6.5,9.9,19.1,12.5,23.5,23.6c0.4,0.9,1.7,2.2,2.4,2.1c7.6-0.8,8.8,5.2,11.5,10.1c2.5,4.5,3.6,9.9,11.6,10.4
		c3.8,0.3,8.4,8.2,10,14.1c0.9,3.4,2.4,6,5.5,7c6.9,2.3,8.2,8.1,9.6,13.9c2.3,9.3,2.7,18.9,14.8,23.3c6,2.1,7.2,12,8.9,18.5
		c2.2,8.4,9.1,16.6,5.2,25.8c-3.6,8.3,4.8,15.3,1.1,23.3c-3.4,7.6-1.3,16.6-6.2,24.3c-3.3,5.2,0.8,12.9-3.9,19
		c-6.3,8.2-6.9,19.9-16.4,26.4c-4.5,3.1-4.5,9.5-7.8,13.2c-11.7,13.1-21.8,28.4-39.8,34.3c-14.7,4.8-28.9,4.5-42.5-3.5
		c-1.6-1-3-3.5-5.1-2.3c-2.5,1.4-1.1,4.1-1,6.2c0.6,9.7,1.2,19.3,1.9,29c0.2,3.1-0.2,6.1-4.2,6c-3.7-0.1-3.5-3.3-3.5-5.7
		c-0.1-12.7-0.1-25.4-0.1-38.1C395.1,445.5,394.2,445.4,393.2,445.2z"/>
</g>
</svg>
