<?xml version="1.0" encoding="utf-8"?>
<!-- Generator: Adobe Illustrator 22.0.1, SVG Export Plug-In . SVG Version: 6.00 Build 0)  -->
<svg version="1.1" id="Layer_1" xmlns="http://www.w3.org/2000/svg" xmlns:xlink="http://www.w3.org/1999/xlink" x="0px" y="0px"
	 viewBox="0 0 792 612" style="enable-background:new 0 0 792 612;" xml:space="preserve">
<style type="text/css">
	.st0{fill:none;stroke:#000000;stroke-width:0.75;stroke-miterlimit:10;}
</style>
<g>
	<path class="st0" d="M675.9,223.1c0,0.9,0,1.8,0,2.7c-2.5,3.5-4.7,7.2-7.4,10.5c-9.9,12-15.3,26.4-21.7,40.2
		c-3.2,6.8-5.5,14.1-7.6,21.4c-2.2,7.8-4.7,15.3-10,21.6c-3.3,3.9-5.2,8.7-6.8,13.5c-2.1,6.4-0.2,12.9,5.2,16.1
		c13.6,8,27.2,16,43.3,17.7c0.3,0,0.6,0.5,1.2,1c-4,1.8-8,1.8-11.9,1.8c-23.8-0.2-45.7,6.2-65.8,19c-12.7,8.1-25.1,16.8-38.9,23.1
		c-1.7,0.8-1.7,2.7-1.9,4.3c-0.1,0.8,0.4,1.6,1.2,1.6c2.9-0.1,4.8,2.3,7.2,3.1c16.9,5.9,30.4,17.1,44.4,27.6
		c10,7.5,21.1,13.5,33.3,16.6c7,1.7,14.2,3.1,21.2,5c1.2,0.3,2.7,0.2,3.2,2c-0.9,1-2.1,0.8-3.3,0.9c-14.7,0.6-29.4,0.9-44,1.9
		c-12.8,0.9-25.4,3.2-37.4,7.8c-10.5,4-20.3,9.8-31.5,11.9c-2.3,0.4-4.7,1.6-5,4.4c-0.4,3,0.6,5.5,3,7.5c1.1,0.9,3,1.2,3.4,3.3
		c-1.9,0.6-3.5,0.3-5-0.3c-11.8-4.2-23.9-7.2-36.1-9.5c-8.4-1.6-16.6-4.4-25.4-3.1c-5.3,0.8-10.7,1-16,0.9c-3.7,0-4.5,1-3.4,4.4
		c3.3,10.5,5.4,21.3,6.7,32.2c0.6,5.2,2.9,7.6,7.3,9.3c3.1,1.2,6.5,1.8,8.8,4.5c-8.7-1.2-16.9-3.8-23.4-10
		c-6.3-5.9-12.7-11.5-20.3-15.8c-4-2.3-8.4-3.6-12.3-6.1c-12.4-8.1-22.4-18.4-28.8-31.9c-0.5-1-1.1-1.8-2-2.3
		c-4-1.9-5.8-5.8-7.9-9.3c-0.8-1.4-1.5-2.8-2.9-3.8c-4.4-3.2-8.4-7-11.5-11.7c-1.6,1.7-1.5,3.7-1.8,5.6c-1.3,9-1.8,18-1.8,27.1
		c-0.2,31.8,0.7,63.5,3.3,95.2c-1.8,0-3.6,0-5.3,0c-0.3-1.4-0.8-2.9-0.9-4.3c-2.5-30.9-3.5-61.9-3.5-92.9c0-10.2,0.4-20.5,0.7-30.7
		c0.1-3.6-1.3-4.9-4.9-3.7c-4.1,1.3-8.4,2-12.7,1.2c-0.8-0.1-2-0.2-2.6,0.2c-5.9,5.2-13.1,4-20,3.9c-21.6-0.5-43.1-2.9-64.8-2.9
		c-2.9,0-5.9-0.3-8.9-0.1c-9,0.7-18.1-0.1-27.1,0.8c-3.1,0.3-6.2-0.3-9.3-0.7c-4.6-0.6-8-3.2-10.8-7c1.6-0.5,2.2,0.5,3.1,1
		c6.8,4.1,8,4,13.9-1.4c1-0.9,2-1.7,3-2.7c6.8-6.6,10.4-14.6,10.5-24.2c0-1.3-0.2-2.4-1.5-2.9c-8.1-3.5-14.2-10-21.3-14.9
		c-12.9-8.9-25.4-18.8-33.5-33.2c-6.4-11.3-16.6-19.2-28.6-24.5c-6.3-2.7-12.2-6-17.1-11c-4.4-4.5-9.9-7.6-15.9-9.5
		c0-0.6,0-1.2,0-1.8c4.7-0.4,9.2,0.8,13.5,2.3c18.6,6.2,37.7,7.3,57.1,5.1c10.5-1.2,20.9-2.4,31.5-0.5c3,0.6,5.7,1.4,7.9,3.6
		c1.7,1.7,3.6,3.3,6.9,3.8c-2.1-5.8-3.7-11.1-6-16c-3.9-8.1-5.3-16.9-9.1-25c-6.2-13-14.4-24.9-20.9-37.8c-2.4-4.7-5.4-8.9-9.4-12.3
		c-6.6-5.8-13.3-11.4-21.2-15.4c-1.1-0.5-3.2-0.9-2.6-2.5c0.7-1.8,2.6-0.8,3.9-0.3c8.9,3,18.3,3.8,27.5,5.3
		c9.2,1.5,16.2-2.3,20.6-10.6c1.4-2.6,2.5-5.1,6.1-4.8c1.1,0.1,2.3-0.7,2.7-2c0.3-1.2-0.6-2-1.5-2.5c-3.1-1.9-3.5-4.8-3.3-8.1
		c0.7-13.5,2.3-26.9,3.3-40.3c1.6-21.4-0.3-42-8.9-61.8c-0.4-0.9-1-1.9,0-3.1c1.5,0.1,2.1,1.4,2.9,2.4c6.6,8.6,12.9,17.4,19.8,25.8
		c10.1,12.3,20.6,24.1,35.3,31.3c2.9,1.4,5.4,2,8.3,0c2.2-1.6,4.2-1.4,5.5,1.2c3.6,7.1,7.5,14.2,10.9,21.4
		c3.2,6.7,7.6,12.6,11.5,18.9c3.1,5.2,7.2,9.7,10.3,15c3.7,6.2,8.3,11.9,12.6,17.8c1.4,2,2.8,1.9,4-0.3c1.5-2.7,2.9-5.5,3.6-8.6
		c2.3-9.7,1.5-19.8,3.4-29.6c0.5-2.5,0.9-5.1,0.5-7.5c-1.7-12.4-1.9-24.4-0.1-37.1c2.7-18.7,3.5-37.8,0.6-56.8
		c-0.2-1-0.7-2.4,0.8-3.1c0.3,0.2,0.7,0.2,0.8,0.4c0.6,1.4,1.1,2.8,1.7,4.1c4.5,10.7,8.9,21.7,17.9,29.5
		c11.9,10.3,24.6,10.9,33.6-0.6c5.1-6.5,10.1-12.3,17.5-16.4c7.7-4.1,14.2-10.2,21.7-14.8c13.1-7.9,23.8-18.1,31.6-31.2
		c4.2-7.1,10.5-12.5,15-19.3c0.4-0.6,1-1.1,2.3-0.5c-2.6,9-4,18.4-6.4,27.4c-4.4,16.8-1.9,33.4-0.3,50c0.6,5.9,3.7,11.9,10.2,14.1
		c4.9,1.7,5.3,1.8,3,6.5c-3.6,7.4-6.5,15-3.8,23.5c0.6,1.8,0.6,3.8,0.8,5.7c1.1,10.1,7.4,15.8,17.6,16c12.5,0.3,23.6-3.5,33.7-10.6
		c1.3-0.9,2.7-1.8,4.6-1c-0.2,0.5-0.2,1-0.5,1.2c-8.4,7.2-14.9,16.1-21.7,24.7c-4.9,6.1-9.1,12.6-13.1,19.5
		c-3.8,6.5-8.3,13-13.5,18.7c-1.6,1.8-3.5,3.4-4,5.8c-3.1,13.5-10,25.7-12.9,39.3c-0.4,2-1.3,3.9-2.2,5.8c-0.6,1.2-2.5,2.2-1.1,3.8
		c1.3,1.4,3,0.9,4.6,0.4c2.4-0.8,4.6-1.9,6.7-3.5c4.8-3.8,9-7.8,12.3-13.2c9.2-14.6,22.7-25.3,34.8-37.3
		c6.7-6.7,13.4-13.4,18.4-21.6c1.7-2.9,2.6-6.4,5.6-9.4c0.6,4.9-0.6,8.9-1.4,12.9c-1.1,5.7-2.1,11.4-1.6,17.2
		c0.6,7.7,11.3,13.7,17.6,12.3c17.8-4,35.6-7.7,53.8-9.6c11.3-1.2,22.1-3.8,31.5-11.1C665.5,227.1,671,225.5,675.9,223.1z"/>
</g>
</svg>
