<?xml version="1.0" encoding="utf-8"?>
<!-- Generator: Adobe Illustrator 22.0.1, SVG Export Plug-In . SVG Version: 6.00 Build 0)  -->
<svg version="1.1" id="Layer_1" xmlns="http://www.w3.org/2000/svg" xmlns:xlink="http://www.w3.org/1999/xlink" x="0px" y="0px"
	 viewBox="0 0 792 612" style="enable-background:new 0 0 792 612;" xml:space="preserve">
<style type="text/css">
	.st0{fill:none;stroke:#000000;stroke-width:0.75;stroke-miterlimit:10;}
</style>
<g>
	<path class="st0" d="M252.5,357.2c1.1-27.2,4.9-54,14.5-79.7c0.4-1.1,0.9-2.2,1.4-3.2c0.4-0.9,0.7-2.1,1.8-2.2
		c1.5-0.2,1.9,1.2,2.3,2.2c3.5,8.6,8.5,16.2,14.9,22.9c9,9.4,18.5,18.3,29.4,25.4c2.5,1.6,5.3,2.9,8.4,3.1c4.5,0.4,6.6-2.4,4.9-6.6
		c-1.4-3.4-3.5-6.4-5.8-9.3c-9.7-12.1-19.5-24.1-26.9-37.8c-3.2-5.9-6-11.9-7.7-18.4c-2.3-8.6-0.7-16.1,5.9-22.4
		c7.6-7.2,15.8-13.8,24.1-20.2c3.4-2.6,5.4-1.4,6.1,2c2.9,14.5,12,25.4,20.9,36.5c2,2.5,4.1,4.9,6.9,6.5c1.8,1,3.9,1.4,5.7,0.2
		c2-1.4,1.5-3.5,1-5.5c-1.8-6.4-6-11.4-9.4-17c-4.8-7.8-10.3-15.2-13.4-23.9c-2.8-7.9-0.7-14.3,4.9-20c7.1-7.2,16.1-11.1,24.8-15.8
		c14.2-7.7,28.8-14.7,42.4-23.5c2.1-1.4,3.6-1.2,5.2,0.6c16.2,19,37.4,31.4,58,44.5c4.9,3.1,9.8,6.3,14.4,10
		c8.6,6.9,14.1,15.5,13,27.1c-0.6,6.3-3.6,11.8-7.2,16.7c-8.8,12.1-20.7,20.6-33.1,28.5c-6.6,4.2-13.2,8.4-19.8,12.6
		c-0.1,0.1-0.3,0.2-0.4,0.3c-2.4,2-6.1,3.9-4.3,7.4c1.5,2.9,5.1,1.4,7.8,0.8c2.7-0.6,5.5-1.6,8-2.7c13-6,25.8-12.5,38.9-18.2
		c15.6-6.8,25.3-18.4,30-34.6c0.9-3,1.3-7.8,3.9-8.1c3.2-0.4,4.5,4.3,6.1,7.1c10,17.1,14.3,35.8,14.1,55.4
		c-0.2,12.1-7.7,20.2-17.5,26.3c-12,7.5-25.3,11.9-38.8,15.7c-16.5,4.7-32.6,10.6-49.3,14.6c-2.8,0.7-5.9,2.3-5.4,5.6
		c0.5,3.4,3.9,3.7,6.8,3.5c8.9-0.4,17.4-2.9,26-4.6c13.9-2.8,27.6-6.2,41.3-9.7c12.6-3.2,23.2-9.9,33-18c1.6-1.3,3.3-4,5.3-3
		c2.4,1.2,2.8,4.4,2.6,7.1c-0.7,7.6-1,15.3-2.4,22.8c-2.8,15.5-5.1,31.2-10.5,46.2c-4.2,11.7-10.2,22.2-17.5,32.2
		c-8.7,11.9-19.1,21.7-31.7,29.2c-13.9,8.2-28.8,13.8-45,15.2c-13,1.1-25.5-0.2-37.4-6c-17.6-8.6-25.4-23.6-28.3-42
		c-0.3-2.1-0.2-4.3-0.3-6.5c0-1.3,0.3-2.9-1.2-3.6c-1.7-0.8-2.8,0.7-3.8,1.7c-1.8,1.9-3.6,4-5.3,6c-11.2,12.9-24.7,21.5-42.3,21.2
		c-23.8-0.5-41.6-11.9-53.1-32.6C258.5,400,251.7,379.6,252.5,357.2z"/>
</g>
</svg>
